<?xml version="1.0" encoding="UTF-8" standalone="no"?>
<!DOCTYPE svg PUBLIC "-//W3C//DTD SVG 1.1//EN" "http://www.w3.org/Graphics/SVG/1.1/DTD/svg11.dtd">
<svg width="100%" height="100%" viewBox="0 0 256 256" version="1.1" xmlns="http://www.w3.org/2000/svg" xmlns:xlink="http://www.w3.org/1999/xlink" xml:space="preserve" xmlns:serif="http://www.serif.com/" style="fill-rule:evenodd;clip-rule:evenodd;stroke-linejoin:round;stroke-miterlimit:2;">
    <g id="black" transform="matrix(1,0,0,1,0.50875,32)">
        <g transform="matrix(2.65607,0,0,2.65607,-203.237,-213.607)">
            <path fill-rule="evenodd" fill="currentColor" d="M100,80C111.038,80 120,88.962 120,100C120,111.038 111.038,120 100,120C88.962,120 80,111.038 80,100C80,88.962 88.962,80 100,80ZM100,87.53C106.882,87.53 112.47,93.118 112.47,100C112.47,106.882 106.882,112.47 100,112.47C93.118,112.47 87.53,106.882 87.53,100C87.53,93.118 93.118,87.53 100,87.53Z"/>
        </g>
        <g transform="matrix(2.65607,0,0,2.65607,-72.9942,-213.607)">
            <path fill-rule="evenodd" fill="currentColor" d="M100,80C111.038,80 120,88.962 120,100C120,111.038 111.038,120 100,120C88.962,120 80,111.038 80,100C80,88.962 88.962,80 100,80ZM100,87.53C106.882,87.53 112.47,93.118 112.47,100C112.47,106.882 106.882,112.47 100,112.47C93.118,112.47 87.53,106.882 87.53,100C87.53,93.118 93.118,87.53 100,87.53Z"/>
        </g>
        <g transform="matrix(2.65607,0,0,2.65607,-212.485,-222.347)">
            <path fill="currentColor" d="M128,121.768C128,121.768 132.977,118.96 136.174,119.908C144.174,122.28 151.036,136 176,136C175.17,143.05 168,144 168,144C168,144 168.401,144.294 172,148C163.333,152.333 156,152 156,152L160,156C160,156 131.703,156.231 128,140C124.297,156.231 96,156 96,156L100,152C100,152 92.667,152.333 84,148C87.599,144.294 88,144 88,144C88,144 80.83,143.05 80,136C104.964,136 111.826,122.28 119.826,119.908C123.023,118.96 128,121.768 128,121.768Z"/>
        </g>
    </g>
</svg>
