<svg xmlns="http://www.w3.org/2000/svg" style="display: none;">

    <svg id="overwolf-logo-footer" viewBox="0 0 144 145">
        <path d="M144 75.1895C144.11 75.1895 109.181 55.3393 109.078 54.7555C108.288 50.5363 107.293 43.5693 102.474 39.9651C98.3274 36.8903 70.3332 24.2017 70.2779 24.0694C65.1235 16.3912 60.5558 8.34592 56.6125 0C52.8678 2.7776 49.822 6.36738 47.7112 10.4913C45.6004 14.6152 44.4811 19.1626 44.4401 23.7813C30.6883 25.7236 17.7814 31.4827 7.22763 40.3855C34.5979 34.2047 42.4811 39.9028 42.4811 39.9028C33.5202 41.476 24.8855 44.5009 16.9277 48.8549C5.26076 55.1758 0 62.7656 0 62.7656C0 62.7656 26.4934 55.3004 46.8256 62.5632C37.3441 63.8814 28.5306 68.1274 21.6513 74.6913C63.7928 79.8368 84.5752 115.879 93.3194 145C96.5343 93.2026 70.3648 73.5314 70.3648 73.5314C77.9637 74.0686 87.5215 79.8913 93.6354 88.5553C112.277 86.4847 122.657 92.1128 122.57 92.1128C122.364 92.1128 132.649 88.999 139.9 85.7062C139.276 84.7799 136.654 81.565 135.161 79.7668C135.366 79.7823 141.101 79.4476 144 75.1895ZM85.7916 52.2645C86.2024 52.1633 95.3337 49.6333 97.9404 50.6064C100.31 51.486 100.357 58.1339 100.357 58.1339C100.357 58.1339 94.9466 58.8812 85.7916 52.2645Z" fill="#D3CFE5"></path>
    </svg>

        <!-- window controls icons 30px -->
    <symbol id="window-close" viewBox="0 0 30 30">
        <path d="M15.5941 15.0254L19.6535 10.8629C19.8515 10.6599 19.8515 10.3553 19.6535 10.1523C19.4554 9.94924 19.1584 9.94924 18.9604 10.1523L14.901 14.3147L10.8416 10.1523C10.6436 9.94924 10.3465 9.94924 10.1485 10.1523C9.95049 10.3553 9.95049 10.6599 10.1485 10.8629L14.2079 15.0254L10.1485 19.1878C9.95049 19.3909 9.95049 19.6954 10.1485 19.8985C10.2475 20 10.3465 20 10.5446 20C10.7426 20 10.8416 20 10.9406 19.8985L15 15.736L19.0594 19.8985C19.1584 20 19.2574 20 19.4554 20C19.6535 20 19.7525 20 19.8515 19.8985C20.0495 19.6954 20.0495 19.3909 19.8515 19.1878L15.5941 15.0254Z"/>
    </symbol>

    <symbol id="window-minimize" viewBox="0 0 30 30">
        <path d="M20 19H10V20H20V19Z"/>
    </symbol>

    <symbol id="window-home" viewBox="0 0 30 30">
        <path d="M22.809 13.1L15.009 8L7.20902 13.1C7.00902 13.3 6.90902 13.6 7.10902 13.8C7.30902 14 7.60902 14.1 7.80902 13.9L10.009 12.4V21.4C10.009 21.7 10.209 21.9 10.509 21.9C10.809 21.9 11.009 21.7 11.009 21.4V11.7L15.009 9.1L19.009 11.7V21.4C19.009 21.7 19.209 21.9 19.509 21.9C19.809 21.9 20.009 21.7 20.009 21.4V12.4L22.209 13.9C22.309 14 22.409 14 22.509 14C22.709 14 22.809 13.9 22.909 13.8C23.109 13.5 23.009 13.2 22.809 13.1Z" />
    </symbol>

    <symbol id="home" viewBox="0 0 122.88 112.07">
		<path d="M61.44,0L0,60.18l14.99,7.87L61.04,19.7l46.85,48.36l14.99-7.87L61.44,0L61.44,0z M18.26,69.63L18.26,69.63 L61.5,26.38l43.11,43.25h0v0v42.43H73.12V82.09H49.49v29.97H18.26V69.63L18.26,69.63L18.26,69.63z"/>
    </symbol>

    <symbol id="window-back" viewBox="0 0 30 30">
        <path d="M20 15.0049H10.8L15.1 9.80846C15.3 9.60859 15.2 9.3088 15 9.10894C14.8 8.90908 14.5 9.00901 14.3 9.20887L9 15.5045L14.3 21.8001C14.4 21.9001 14.5 22 14.7 22C14.8 22 14.9 22 15 21.9001C15.2 21.7002 15.2 21.4004 15.1 21.2006L10.8 16.0042H20V15.0049Z"/>
    </symbol>

    <symbol id="window-settings" viewBox="0 0 30 30">
        <path d="M22 16.3V13.7H19.8C19.7 13.3 19.5 12.9 19.3 12.5L20.9 10.9L19 9.1L17.4 10.7C17 10.5 16.6 10.3 16.2 10.2V8H13.6V10.2C13.2 10.3 12.8 10.5 12.4 10.7L11 9.1L9.1 11L10.7 12.6C10.5 13 10.3 13.4 10.2 13.8H8V16.4H10.2C10.3 16.8 10.5 17.2 10.7 17.6L9.1 19L10.9 20.8L12.5 19.2C12.9 19.4 13.3 19.6 13.7 19.7V22H16.3V19.8C16.7 19.7 17.1 19.5 17.5 19.3L19.1 20.9L20.9 19.1L19.3 17.5C19.5 17.1 19.7 16.7 19.8 16.3H22ZM15 17.8C13.5 17.8 12.2 16.6 12.2 15C12.2 13.5 13.4 12.2 15 12.2C16.6 12.2 17.8 13.4 17.8 15C17.8 16.5 16.5 17.8 15 17.8Z"/>
    </symbol>
    
    <symbol id="window-maximize" viewBox="0 0 30 30">
        <rect x="10.5" y="10.5" width="9" height="9" fill="none" stroke="currentcolor" />
    </symbol>

    <symbol id="more-info" viewBox="0 0 20 20">
        <path d="M9.21525 11.9592V11.6327C9.21525 11.161 9.28399 10.774 9.42148 10.4717C9.55897 10.1653 9.81485 9.8428 10.1891 9.50417C10.7085 9.04058 11.035 8.69188 11.1687 8.45807C11.3062 8.22426 11.3749 7.94207 11.3749 7.61151C11.3749 7.20032 11.2489 6.88387 10.9968 6.66215C10.7486 6.4364 10.3896 6.32352 9.91987 6.32352C9.61816 6.32352 9.32409 6.36182 9.03766 6.43842C8.75123 6.51098 8.42279 6.64602 8.05234 6.84355L7.71436 6.02723C8.43616 5.62814 9.19043 5.42859 9.97716 5.42859C10.7066 5.42859 11.2737 5.61806 11.6786 5.99699C12.0834 6.37593 12.2858 6.91007 12.2858 7.59941C12.2858 7.89369 12.2476 8.15371 12.1712 8.37946C12.0986 8.60118 11.9898 8.81282 11.8447 9.01438C11.6996 9.21191 11.3864 9.53239 10.9052 9.97583C10.5195 10.3225 10.2636 10.6108 10.1376 10.8405C10.0153 11.0703 9.95424 11.3767 9.95424 11.7597V11.9592H9.21525Z" />
        <path d="M8.93455 13.7551C8.93455 13.2069 9.16369 12.9327 9.62198 12.9327C9.84349 12.9327 10.0134 13.0033 10.1318 13.1444C10.254 13.2855 10.3151 13.4891 10.3151 13.7551C10.3151 14.0131 10.254 14.2147 10.1318 14.3598C10.0096 14.5009 9.83967 14.5714 9.62198 14.5714C9.42339 14.5714 9.25917 14.509 9.12932 14.384C8.99947 14.255 8.93455 14.0454 8.93455 13.7551Z" />
        <path fill-rule="evenodd" clip-rule="evenodd" d="M18 10C18 14.4183 14.4183 18 10 18C5.58172 18 2 14.4183 2 10C2 5.58172 5.58172 2 10 2C14.4183 2 18 5.58172 18 10ZM17 10C17 13.866 13.866 17 10 17C6.13401 17 3 13.866 3 10C3 6.13401 6.13401 3 10 3C13.866 3 17 6.13401 17 10Z" />
    </symbol>

    <symbol id="feedback" viewBox="0 0 20 20">
        <path fill-rule="evenodd" clip-rule="evenodd" d="M2 2C1.44772 2 1 2.44772 1 3V15C1 15.5523 1.44772 16 2 16H15.1111L18.1655 18.749C18.4873 19.0386 19 18.8102 19 18.3773V3C19 2.44772 18.5523 2 18 2H2ZM9.90542 4.27546C9.93633 4.18543 10.0637 4.18543 10.0946 4.27546L11.1572 7.37017C11.171 7.41057 11.209 7.43769 11.2517 7.43769H14.678C14.7762 7.43769 14.8156 7.56446 14.7347 7.6201L11.9724 9.51927C11.9354 9.54471 11.9199 9.59168 11.9345 9.63415L12.9918 12.7135C13.0231 12.8047 12.92 12.883 12.8406 12.8284L10.0567 10.9143C10.0225 10.8909 9.97747 10.8909 9.94335 10.9143L7.15943 12.8284C7.08 12.883 6.97689 12.8047 7.0082 12.7135L8.0655 9.63415C8.08008 9.59168 8.06457 9.54471 8.02758 9.51927L5.2653 7.6201C5.18438 7.56446 5.22375 7.43769 5.32195 7.43769H8.74826C8.79098 7.43769 8.82897 7.41057 8.84284 7.37017L9.90542 4.27546Z" />
    </symbol>

    <symbol id="discord" viewBox="0 0 30 30">
        <path d="M12.1364 14.3253C11.2364 14.3253 10.5818 15.0753 10.5818 15.9002C10.5818 16.8002 11.3182 17.4752 12.1364 17.4752C13.0364 17.4752 13.6909 16.7252 13.6909 15.9002C13.6909 15.0753 13.0364 14.3253 12.1364 14.3253ZM17.7818 14.3253C16.8818 14.3253 16.2273 15.0753 16.2273 15.9002C16.2273 16.8002 16.9636 17.4752 17.7818 17.4752C18.6818 17.4752 19.3364 16.7252 19.3364 15.9002C19.3364 15.0753 18.6 14.3253 17.7818 14.3253ZM19.2545 21C19.2545 21 18.6818 20.4 18.2727 19.8751C20.3182 19.3501 21.0545 18.1501 21.0545 18.1501C20.4 18.5251 19.8273 18.8251 19.2545 18.9751C18.5182 19.2751 17.7818 19.5001 17.0455 19.5751C15.5727 19.8001 14.1818 19.7251 13.0364 19.5751C12.1364 19.4251 11.4 19.2001 10.7455 18.9751C10.4182 18.8251 10.0091 18.6751 9.6 18.5251C9.51818 18.5251 9.51818 18.4501 9.43636 18.4501C9.43636 18.4501 9.35455 18.4501 9.35455 18.3751C9.10909 18.2251 8.94545 18.1501 8.94545 18.1501C8.94545 18.1501 9.68182 19.2751 11.6455 19.8001C11.2364 20.325 10.6636 21 10.6636 21C7.30909 20.925 6 18.8251 6 18.8251C6 14.2503 8.20909 10.5005 8.20909 10.5005C10.4182 8.92557 12.5455 9.00057 12.5455 9.00057L12.7091 9.15056C9.92727 9.90052 8.61818 11.0255 8.61818 11.0255C8.61818 11.0255 8.94545 10.8755 9.51818 10.5755C11.2364 9.97552 12.5455 9.75053 13.0364 9.75053C13.1182 9.75053 13.2 9.75053 13.2818 9.75053C14.1818 9.60054 15.2455 9.60054 16.3909 9.75053C17.8636 9.90052 19.4182 10.2755 21.0545 11.1005C21.0545 11.1005 19.8273 10.0505 17.2091 9.30055L17.4545 9.00057C17.4545 9.00057 19.5818 8.92557 21.7909 10.5005C21.7909 10.5005 24 14.2503 24 18.8251C24 18.8251 22.6909 20.925 19.2545 21Z"/>
    </symbol>

    <symbol id="linkdin" viewBox="0 0 32 32">
        <path d="M16.7552 14.9895V15.0206H16.735L16.7552 14.9895Z"  />
        <path fill-rule="evenodd" clip-rule="evenodd" d="M7.47796 6C6.66169 6 6 6.64164 6 7.43267V24.5673C6 25.3586 6.66169 26 7.47796 26H24.522C25.3383 26 26 25.3586 26 24.5673V7.43267C26 6.64164 25.3383 6 24.522 6H7.47796ZM12.0641 13.7108V22.7419H9.04331V13.7108H12.0641ZM13.7344 22.7419H16.7551V17.6986C16.7551 17.4287 16.7747 17.159 16.8545 16.9661C17.0729 16.4268 17.5699 15.8683 18.4044 15.8683C19.4975 15.8683 19.9348 16.6964 19.9348 17.9105V22.7419H22.9553V17.5636C22.9553 14.7897 21.465 13.4989 19.4776 13.4989C17.8751 13.4989 17.1566 14.3741 16.7552 14.9895V13.7108H13.7344C13.774 14.5582 13.7344 22.7419 13.7344 22.7419ZM10.5 12C11.3284 12 12 11.3284 12 10.5C12 9.67157 11.3284 9 10.5 9C9.67157 9 9 9.67157 9 10.5C9 11.3284 9.67157 12 10.5 12Z" />
    </symbol>    

    <symbol id="heart" viewBox="0 0 24 24">
        <path d="M12 4.419c-2.826-5.695-11.999-4.064-11.999 3.27 0 7.27 9.903 10.938 11.999 15.311 2.096-4.373 12-8.041 12-15.311 0-7.327-9.17-8.972-12-3.27z"/>
    </symbol>

    <symbol id="share" viewBox="0 0 24 24">
        <path d="M5 7c2.761 0 5 2.239 5 5s-2.239 5-5 5-5-2.239-5-5 2.239-5 5-5zm11.122 12.065c-.073.301-.122.611-.122.935 0 2.209 1.791 4 4 4s4-1.791 4-4-1.791-4-4-4c-1.165 0-2.204.506-2.935 1.301l-5.488-2.927c-.23.636-.549 1.229-.943 1.764l5.488 2.927zm7.878-15.065c0-2.209-1.791-4-4-4s-4 1.791-4 4c0 .324.049.634.122.935l-5.488 2.927c.395.535.713 1.127.943 1.764l5.488-2.927c.731.795 1.77 1.301 2.935 1.301 2.209 0 4-1.791 4-4z"/>
    </symbol>

    <symbol id="send" viewBox="0 0 24 24">
        <path d="M24 0l-6 22-8.129-7.239 7.802-8.234-10.458 7.227-7.215-1.754 24-12zm-15 16.668v7.332l3.258-4.431-3.258-2.901z"/>
    </symbol>
    
	<symbol id="plus" viewBox="0 0 32 32">
		<path d="M17 17V23C17 23.5523 16.5523 24 16 24C15.4477 24 15 23.5523 15 23V17H9C8.44772 17 8 16.5523 8 16C8 15.4477 8.44772 15 9 15H15V9C15 8.44772 15.4477 8 16 8C16.5523 8 17 8.44772 17 9V15H23C23.5523 15 24 15.4477 24 16C24 16.5523 23.5523 17 23 17H17Z"/>
	 </symbol>
	 
	<symbol id="trash" viewBox="0 0 24 24">
		<path d="M9 3C9 2.44772 9.44772 2 10 2H14C14.5523 2 15 2.44772 15 3V4H18C18.5523 4 19 4.44772 19 5V6H5V5C5 4.44772 5.44772 4 6 4H9V3Z"/>
		<path fill-rule="evenodd" clip-rule="evenodd" d="M18 8H6V21C6 21.5523 6.44772 22 7 22H17C17.5523 22 18 21.5523 18 21V8ZM11 11V19H9V11H11ZM15 11H13V19H15V11Z"/>
	</symbol>
	
	<symbol id="swap" viewBox="0 0 24 24">
		<path d="M4 9h13l-1.6 1.2a1 1 0 0 0-.2 1.4 1 1 0 0 0 .8.4 1 1 0 0 0 .6-.2l4-3a1 1 0 0 0 0-1.59l-3.86-3a1 1 0 0 0-1.23 1.58L17.08 7H4a1 1 0 0 0 0 2z"/>
		<path d="M20 16H7l1.6-1.2a1 1 0 0 0-1.2-1.6l-4 3a1 1 0 0 0 0 1.59l3.86 3a1 1 0 0 0 .61.21 1 1 0 0 0 .79-.39 1 1 0 0 0-.17-1.4L6.92 18H20a1 1 0 0 0 0-2z"/>
	</symbol>
	
	<symbol id="news" viewBox="0 0 32 32">
		<path class="st0" d="M22,6v18c0,1.6,1.3,3,3,3h0c1.6,0,3-1.3,3-3v-9l-6,0"/>
		<path class="st0" d="M22,6v18c0,1.3,0.8,2.4,2,2.8V27H8H7c-1.7,0-3-1.4-3-3V6H22z"/>
		<line class="st0" x1="8" y1="11" x2="14" y2="11"/>
		<line class="st0" x1="8" y1="15" x2="10" y2="15"/>
	</symbol>
	
	<symbol id="timer" viewBox="0 0 296.228 296.228">
		<path d="m167.364,48.003v-23.003h10.5c6.903,0 12.5-5.597 12.5-12.5s-5.596-12.5-12.5-12.5h-59.5c-6.903,0-12.5,5.597-12.5,12.5s5.597,12.5 12.5,12.5h10.5v23.003c-59.738,9.285-105.604,61.071-105.604,123.37-3.55271e-15,68.845 56.01,124.855 124.854,124.855 68.845,0 124.854-56.01 124.854-124.855 0-62.299-45.866-114.086-105.604-123.37zm23.148,165.589c-2.442,2.452-5.65,3.68-8.857,3.68-3.19,0-6.381-1.214-8.82-3.643l-33.54-33.398c-2.355-2.346-3.68-5.533-3.68-8.857v-64.082c0-6.903 5.597-12.5 12.5-12.5 6.903,0 12.5,5.597 12.5,12.5v58.889l29.86,29.734c4.891,4.87 4.908,12.785 0.037,17.677z"/>
	</symbol>
	 
	<symbol id="left" viewBox="0 0 48 48">
		<path d="M31 36L19 24L31 12" stroke-width="4" stroke-linecap="round" stroke-linejoin="round"/>
	</symbol>

	<symbol id="right" viewBox="0 0 48 48">
		<path d="M19 12L31 24L19 36" stroke-width="4" stroke-linecap="round" stroke-linejoin="round"/>
	</symbol>
	
	<symbol id="pencil" viewBox="0 0 612.097 612.097">
		<path d="M320.85,151.725l139.6,139.6l-238,237.9l-139.6-139.6L320.85,151.725z M607.65,124.125l-119.7-119.7
		c-5.9-5.9-15.5-5.9-21.4,0l-104,104l141,141l104-104C613.55,139.525,613.55,130.025,607.65,124.125z M0.55,592.825
		c-1.4,5.3,0.1,10.9,3.9,14.8c3.9,3.9,9.5,5.4,14.8,3.9l165.5-44.6l-139.6-139.6L0.55,592.825z"/>
	</symbol>

    <symbol id="subscription" viewBox="0 0 24 24">
        <path d="M5.20465 18.6659C5.26968 18.8647 5.4628 19 5.6813 19H18.3187C18.5372 19 18.7303 18.8647 18.7954 18.6659L21.9765 8.94604C22.1012 8.56499 21.7074 8.21591 21.3174 8.36176L16.04 10.3351C15.7932 10.4274 15.5138 10.3198 15.4035 10.0901L12.4506 3.93899C12.269 3.56083 11.7306 3.56084 11.5491 3.93901L8.59647 10.0901C8.48622 10.3198 8.20675 10.4274 7.95997 10.3351L2.68259 8.36176C2.29255 8.21591 1.89879 8.56499 2.0235 8.94604L5.20465 18.6659Z"/>
    </symbol>
	 
    <symbol id="sync" viewBox="0 0 511.979 511.979" xml:space="preserve">
        <path d="M42.667,255.998c0-70.778,57.222-128,128-128c0.057,0,0.112-0.008,0.169-0.009h118.984l-27.582,27.582
				c-8.331,8.331-8.331,21.839,0,30.17c8.331,8.331,21.839,8.331,30.17,0l64-64c0.004-0.004,0.007-0.008,0.011-0.012
				c0.492-0.493,0.959-1.012,1.402-1.551c0.203-0.247,0.379-0.507,0.568-0.76c0.227-0.304,0.463-0.601,0.674-0.917
				c0.203-0.303,0.379-0.618,0.565-0.93c0.171-0.286,0.35-0.565,0.508-0.86c0.17-0.318,0.314-0.645,0.467-0.969
				c0.145-0.307,0.298-0.609,0.428-0.923c0.13-0.315,0.235-0.636,0.35-0.956c0.121-0.337,0.25-0.67,0.355-1.015
				c0.097-0.32,0.168-0.645,0.249-0.968c0.089-0.351,0.187-0.698,0.258-1.056c0.074-0.375,0.118-0.753,0.172-1.13
				c0.044-0.311,0.104-0.618,0.135-0.933c0.138-1.4,0.138-2.811,0-4.211c-0.031-0.315-0.09-0.621-0.135-0.932
				c-0.054-0.378-0.098-0.756-0.173-1.13c-0.071-0.358-0.169-0.704-0.258-1.055c-0.081-0.324-0.152-0.649-0.249-0.969
				c-0.104-0.344-0.233-0.677-0.354-1.013c-0.115-0.32-0.22-0.642-0.35-0.957c-0.13-0.314-0.283-0.616-0.428-0.922
				c-0.153-0.325-0.297-0.652-0.467-0.97c-0.157-0.294-0.337-0.573-0.507-0.859c-0.186-0.312-0.362-0.627-0.565-0.931
				c-0.211-0.315-0.446-0.612-0.673-0.915c-0.19-0.254-0.367-0.515-0.57-0.762c-0.443-0.539-0.909-1.058-1.402-1.551
				c-0.004-0.004-0.007-0.008-0.011-0.012l-64-64c-8.331-8.331-21.839-8.331-30.17,0c-8.331,8.331-8.331,21.839,0,30.17
				l27.582,27.582H170.656c-0.077,0-0.152,0.011-0.229,0.012C76.196,85.464,0,161.736,0,255.998
				c0,42.518,16.993,82.551,46.605,112.188c8.328,8.335,21.835,8.341,30.17,0.013c8.335-8.328,8.341-21.835,0.013-30.17
				C55.074,316.297,42.667,287.066,42.667,255.998z"/>
		<path d="M511.979,255.981c0-42.518-16.993-82.551-46.605-112.188c-8.328-8.335-21.835-8.341-30.17-0.013
				c-8.335,8.328-8.341,21.835-0.013,30.17c21.713,21.732,34.121,50.963,34.121,82.031c0,70.778-57.222,128-128,128
				c-0.057,0-0.112,0.008-0.169,0.009H222.159l27.582-27.582c8.331-8.331,8.331-21.839,0-30.17c-8.331-8.331-21.839-8.331-30.17,0
				l-64,64c-0.004,0.004-0.006,0.008-0.01,0.011c-0.493,0.494-0.96,1.012-1.403,1.552c-0.203,0.247-0.379,0.507-0.569,0.761
				c-0.227,0.303-0.462,0.6-0.673,0.915c-0.203,0.304-0.379,0.619-0.565,0.93c-0.171,0.286-0.35,0.565-0.508,0.86
				c-0.17,0.317-0.313,0.643-0.466,0.967c-0.145,0.308-0.299,0.61-0.43,0.925c-0.13,0.314-0.234,0.634-0.349,0.952
				c-0.122,0.338-0.251,0.672-0.356,1.018c-0.096,0.318-0.167,0.641-0.248,0.963c-0.089,0.353-0.188,0.702-0.259,1.061
				c-0.074,0.372-0.117,0.747-0.171,1.122c-0.045,0.314-0.105,0.623-0.136,0.941c-0.068,0.693-0.105,1.387-0.105,2.083
				c0,0.007-0.001,0.015-0.001,0.022s0.001,0.015,0.001,0.022c0.001,0.695,0.037,1.39,0.105,2.083
				c0.031,0.318,0.091,0.627,0.136,0.94c0.054,0.375,0.098,0.75,0.171,1.122c0.071,0.359,0.17,0.708,0.259,1.061
				c0.081,0.322,0.151,0.645,0.248,0.964c0.105,0.346,0.234,0.68,0.356,1.018c0.114,0.318,0.219,0.639,0.349,0.953
				c0.131,0.316,0.284,0.618,0.43,0.926c0.152,0.323,0.296,0.649,0.465,0.966c0.158,0.295,0.338,0.575,0.509,0.861
				c0.186,0.311,0.361,0.626,0.564,0.929c0.211,0.316,0.447,0.613,0.674,0.917c0.19,0.253,0.365,0.513,0.568,0.759
				c0.446,0.544,0.916,1.067,1.413,1.563l64,64c8.331,8.331,21.839,8.331,30.17,0c8.331-8.331,8.331-21.839,0-30.17l-27.582-27.582
				h119.163c0.077,0,0.152-0.011,0.229-0.012C435.783,426.515,511.979,350.243,511.979,255.981z"/>
    </symbol>
	 
    <symbol id="downArrowInCircle" viewBox="0 0 512 512">
		<path d="M256,0C114.618,0,0,114.618,0,256s114.618,256,256,256s256-114.618,256-256S397.382,0,256,0z M256,469.333
			c-117.818,0-213.333-95.515-213.333-213.333S138.182,42.667,256,42.667S469.333,138.182,469.333,256S373.818,469.333,256,469.333
			z"/>
		<path d="M347.582,198.248L256,289.83l-91.582-91.582c-8.331-8.331-21.839-8.331-30.17,0c-8.331,8.331-8.331,21.839,0,30.17
			l106.667,106.667c8.331,8.331,21.839,8.331,30.17,0l106.667-106.667c8.331-8.331,8.331-21.839,0-30.17
			C369.42,189.917,355.913,189.917,347.582,198.248z"/>
    </symbol>
	 

	 
	 
</svg>